<?xml version="1.0" encoding="utf-8"?>
<!-- Generator: Adobe Illustrator 24.0.1, SVG Export Plug-In . SVG Version: 6.00 Build 0)  -->
<svg version="1.1" id="Layer_1" xmlns="http://www.w3.org/2000/svg" xmlns:xlink="http://www.w3.org/1999/xlink" x="0px" y="0px"
	 viewBox="0 0 1164.1 284.2" style="enable-background:new 0 0 1164.1 284.2;" xml:space="preserve">
<path d="M109.2,279.2L52.3,110.5v168.7H0V0h52.7l54,160.3V0h52.3v279.2H109.2z M202.6,279.2V0h122.2v46.5h-69.5v67.4h66.6v46.5
	h-66.6v72.4h69.5v46.5L202.6,279.2L202.6,279.2z M360.8,279.2V0h84.1c46.5,0,67,32.7,67,71.2c0,35.2-16.7,56.9-41,64
	c26.4,4.2,44.8,34.3,44.8,68.6c0,42.7-19.7,75.3-67.8,75.3H360.8z M413.5,114.7h17.6c19.7,0,26.8-14.2,26.8-34.7
	c0-20.1-7.1-34.7-26.8-34.7h-17.6V114.7z M413.5,234h19.2c19.7,0,28.9-13.4,28.9-37.2c0-20.5-9.2-37.2-28.9-37.2h-19.2V234z M550,0
	h52.7v200.9c0,27.2,10.5,36.8,26.8,36.8c15.9,0,26.8-9.6,26.8-36.8V0h52.7v198.4c0,59.9-38.1,85.8-79.5,85.8s-79.5-26-79.5-85.8
	L550,0L550,0z M752.6,279.2V0h52.7v232.7h69.5v46.5H752.6z M905.4,279.2V0h52.7v279.2H905.4z M1105.9,279.2l-34.3-96.3l-33.9,96.3
	h-58.2l61.5-142.3L982.8,0h58.2l30.6,91.2L1102.1,0h58.6l-58.6,136.5l61.9,142.7L1105.9,279.2L1105.9,279.2z"/>
</svg>
