<?xml version="1.0" encoding="utf-8"?>
<!-- Generator: Adobe Illustrator 24.0.1, SVG Export Plug-In . SVG Version: 6.00 Build 0)  -->
<svg version="1.1"
	 id="svg1" xmlns:inkscape="http://www.inkscape.org/namespaces/inkscape" xmlns:sodipodi="http://sodipodi.sourceforge.net/DTD/sodipodi-0.dtd" xmlns:svg="http://www.w3.org/2000/svg"
	 xmlns="http://www.w3.org/2000/svg" xmlns:xlink="http://www.w3.org/1999/xlink" x="0px" y="0px" viewBox="0 0 1164.1 284.2"
	 style="enable-background:new 0 0 1164.1 284.2;" xml:space="preserve">
<sodipodi:namedview  bordercolor="#000000" borderopacity="0.25" id="namedview1" inkscape:current-layer="svg1" inkscape:cx="570.95185" inkscape:cy="178.95506" inkscape:deskcolor="#d1d1d1" inkscape:pagecheckerboard="0" inkscape:pageopacity="0.0" inkscape:showpageshadow="2" inkscape:window-height="767" inkscape:window-maximized="0" inkscape:window-width="1352" inkscape:window-x="0" inkscape:window-y="25" inkscape:zoom="0.58673949" pagecolor="#ffffff">
	</sodipodi:namedview>
<g>
	<g>
		<g>
			<path fill="currentColor" d="M140.6,235.1c-0.3,0-0.6,0-0.9,0c-0.2,0-0.3,0-0.5,0c-3.9,0-7.1-1.9-8.7-5.2l-11.2-18c-8.5-13.7-17.1-27.5-25.6-41.2
				c-10.5-17-21-34-31.6-51c-6.3-10.2-12.6-20.3-18.9-30.5c-1.1-1.7-2.2-3.5-3.3-5.2c-0.3-0.4-0.5-0.8-0.8-1.2l0,144.7
				c0,0.4,0,0.8,0,1.3L39,234l-4.6,0.8c-1.2,0.2-2.3,0.2-3,0.2c-0.4,0-0.7,0-1.1,0c-0.3,0-0.6,0-0.8,0l-0.3,0c-0.6,0-1.2,0-1.8,0
				l-2.7,0H20l-0.9-4.6l0-0.1c-0.1-0.3-0.2-0.8-0.2-1.5c0-0.4,0-0.9,0-1.3c0,0,0-68.8,0-89.5c0-27.1,0-54.2,0-81.2
				c0-1.4,0-2.7-0.1-4c0-0.1-0.1-0.5-0.1-0.8c-0.1-0.3-0.1-0.6-0.2-0.8l-0.1-0.5v-6.2l2.4-1.7c1.8-1.3,3.1-1.8,5.6-1.8
				c0,0,2.2,0,2.7,0c1,0,1.8,0,2.5-0.1c0.2,0,0.4,0,0.6,0c3.2,0,5.8,1.6,7.5,4.4c1.8,3.1,3.6,6,5.2,8.7C53.2,67.2,61.5,80.6,69.8,94
				c5.7,9.1,11.3,18.2,17,27.3c7.1,11.4,14.1,22.8,21.2,34.1c7.7,12.4,15.4,24.8,23,37.2c0-48,0-96,0-144l0-0.2
				c0-0.8-0.1-2.3,0.6-3.9l1-2.3l2.2-0.8c0.5-0.2,1.3-0.5,2.3-0.5c2.7,0,5.3,0,8,0c0.6,0,1,0.1,1.3,0.1l4.4,0.5l0.7,4.2
				c0.1,0.4,0.2,1,0.2,1.7c0,5.4,0,10.7,0,16.1l0,1.7c0,0.2,0,1.1,0,1.1l0,6.2c0,5.4,0,10.9,0,16.3c0,23.1-0.1,46.2-0.1,69.4
				c0,4.6,0,9.1,0,13.7l0.1,16.6l0.1,39c0,6.4-4.5,7.4-7.3,7.4C143.2,235.1,141.9,235.1,140.6,235.1L140.6,235.1z"/>
		</g>
		<g>
			<path fill="currentColor" d="M24,47.3c1.2-0.8,1.2-0.8,2.9-0.8c1.7,0,3.4,0,5.1-0.1c1.4-0.1,2.2,0.4,2.9,1.6c1.7,2.9,3.5,5.9,5.3,8.8
				C48.4,70.2,56.7,83.6,65,96.9c12.7,20.5,25.5,41,38.2,61.5c10.3,16.6,20.5,33.2,30.8,49.8c0.4,0.6,0.7,1.3,1,1.9
				c0.3,0.6,0.7,1.3,1.4,1.8c0.1-0.2,0.2-0.4,0.2-0.6c0-0.5,0-1,0-1.5c0-53.7,0-107.4,0-161.1c0-0.6-0.1-1.3,0.1-1.9
				c0.1,0,0.3-0.1,0.4-0.1c2.6,0,5.3,0,7.9,0c0.3,0,0.5,0.1,0.9,0.1c0,0.3,0.1,0.5,0.1,0.8c0,5.9,0,11.8,0,17.8c0,0.4,0,0.7,0,1.1
				c0,7.5,0,15-0.1,22.5c0,23.1-0.1,46.2-0.1,69.4c0,5.5,0,11,0,16.5c0,4.6,0,9.2,0.1,13.8c0,9.5,0.1,18.9,0.1,28.4
				c0,3.6,0,7.1,0,10.7c0,1.6-0.1,1.7-1.7,1.8c-1.3,0-2.5,0-3.8,0c-0.5,0-0.9,0-1.4,0c-1.7,0-3-0.6-3.7-2.2
				c-12.3-19.8-24.7-39.6-37-59.5c-16.8-27.2-33.6-54.3-50.5-81.5c-2.5-4-5-7.9-7.4-11.9c-1.5-2.4-2.9-4.9-4.4-7.4
				c-0.3-0.6-0.7-1.2-1-1.8c-0.3-0.4-0.6-0.8-1.2-0.9c-0.3,0.4-0.4,0.9-0.5,1.3c0,0.4,0,0.8,0,1.2c0,20.3,0,40.6,0,60.9
				c0,33.3,0,66.5,0,99.8c0,0.5,0,1.1,0,1.7c-1.5,0.3-3,0.1-4.4,0.1c-1.5,0-2.9,0-4.4,0c-0.1-0.3-0.1-0.6-0.2-0.8c0-0.5,0-0.9,0-1.4
				c0-29.7,0-59.4,0-89.2c0-27.1,0-54.2,0-81.2c0-1.5,0-2.9-0.1-4.4c0-0.8-0.2-1.5-0.4-2.3C24,49.1,24,48.2,24,47.3z"/>
		</g>
		<g>
			<path fill="currentColor" d="M585.9,238.2c0,0-0.8-0.2-0.8-0.2c-0.8,0-1.6-0.1-2.4-0.1c-1.9-0.1-3.9-0.1-5.9-0.3c-8.8-0.7-16.6-2.3-23.9-5.1
				c-13.5-5.1-23.9-14.1-30.8-26.8c-3.6-6.5-6.3-13.8-8.2-21.6c-1.1-4.7-2.1-9.8-2.9-15.6c-0.7-5-1.2-10.1-1.5-15.2
				c-0.2-2.8-0.3-5.5-0.4-8.2l-0.1-2.5c-0.2-4.7,0-9.4,0.1-13.6c0.1-3.2,0.3-6.5,0.7-10c0.3-2.3,0.5-4.7,0.8-7l0.4-4.1
				c1.3-12.2,4.3-23.1,9-33.3c2.1-4.5,4.6-8.7,7.4-12.4c6.3-8.2,14.4-14.4,24.2-18.4c4.3-1.7,8.9-3.1,14.1-4.1
				c3.7-0.7,7.6-1.3,11.5-1.7c1.2-0.1,2.5-0.2,3.7-0.3c0.7,0,1.4-0.1,2.1-0.1c0.2,0,0.3,0,0.5-0.1c0.2,0,1-0.2,1-0.2h10.1l0.6,0.1
				c0.1,0,0.2,0.1,0.4,0.1c3.2,0.2,6.3,0.5,9.3,0.9c10.5,1.6,18.9,4.2,26.4,8.2c8.6,4.6,15.7,10.9,20.9,18.9
				c0.4,0.6,0.8,1.2,1.2,1.7l0.7,1c0.2,0.3,0.4,0.6,0.6,0.9c1.6,3,1.2,6.2-1.2,8.6c-0.5,0.5-0.9,0.8-1.2,1.1l-6,5
				c-3.6,2.9-7.1,5.9-10.7,8.8c-18.6,15.4-37.8,31.4-56.5,47.3l-0.7,0.6c-2,1.7-4.5,2.6-7.3,2.6l-10.9-0.1c-0.4,0-1,0-1.7-0.1
				c-1.2-0.2-2-0.8-2.4-1l-3.8-2.4l1.7-4.4c0.8-2,2.1-3,2.7-3.4l0.7-0.6c4.4-3.7,8.8-7.3,13.2-11c10.2-8.4,54.2-44.9,54.2-44.9
				c1.9-1.6,3.8-3.2,5.7-4.7c-2.3-2.2-5-4.2-8-5.8c-3.8-2-8-3.5-12.8-4.6c-5.5-1.3-11.2-2-16.9-2.2c-1.1,0-2.3-0.1-3.4-0.1
				c-3,0-6.1,0.1-9.6,0.3c-2.8,0.2-5,0.4-7,0.6c-10.9,1.3-19.8,5.7-27.2,13.5c-3.1,3.3-5.6,7.1-7.3,11.2c-2.5,6-4.1,11-5.1,15.6
				c-0.5,2.4-0.9,5-1.4,8.4c-0.5,3.5-0.9,7.1-1.3,10.4c-0.2,2.2-0.4,4.4-0.6,6.5c-0.4,7.5-0.5,14.3-0.2,20.7l0,0.9
				c0.2,3.2,0.3,6.5,0.6,9.7c0.5,6.5,1.3,14.2,3.1,21.7c1.3,5.4,2.7,9.7,4.3,13.4c5.3,11.9,14,19.6,26.6,23.5
				c2.9,0.9,6.2,1.6,10.2,2.1c4.2,0.5,8.7,0.8,13.7,0.8c1.8,0,3.7,0,5.7-0.1c6.8-0.2,12.9-1.1,18.4-2.7c4.3-1.2,7.9-2.7,11-4.6
				c2.9-1.7,5.3-3.6,7.4-5.8c0.8-0.8,1.5-1.6,2.3-2.4c0.3-0.4,0.8-0.8,1.4-1.3c1.1-0.8,2.4-1.2,3.8-1.2c1.2,0,2.4,0.4,3.5,1
				c0.6,0.4,1,0.8,1.3,1c1.5,1.3,2.9,2.6,4.3,3.9c3.5,3.2,3.7,7.3,0.5,10.8c-4.8,5.3-10.6,9.8-17.1,13.1c-5.6,2.9-11.7,5-18.7,6.5
				c-6.1,1.3-12.5,2-19.6,2.1c-0.1,0-0.1,0-0.2,0c-0.2,0-0.4,0.1-0.6,0.1l-0.4,0.1H585.9z"/>
		</g>
		<g>
			<path fill="currentColor" d="M594,43.2c0.3,0.1,0.6,0.2,0.9,0.2c3,0.1,6.1,0.4,9.1,0.9c8.6,1.3,16.9,3.5,24.7,7.6c7.7,4.1,14,9.7,18.8,17
				c0.6,0.9,1.2,1.8,1.8,2.7c0.1,0.2,0.3,0.4,0.4,0.6c0.4,0.8,0.4,1.2-0.3,1.8c-0.3,0.3-0.7,0.6-1,0.9c-5.5,4.6-11,9.1-16.5,13.7
				C612.9,104.3,594,120,575.3,136c-0.2,0.2-0.5,0.4-0.7,0.6c-1.1,0.9-2.3,1.3-3.7,1.3c-3.6,0-7.2,0-10.8-0.1c-0.2,0-0.5,0-0.7,0
				c-0.1,0-0.2-0.1-0.3-0.2c0.2-0.6,0.7-0.9,1.1-1.2c4.6-3.9,9.2-7.7,13.8-11.5c18-15,36.1-29.9,54.2-44.9c2.9-2.4,5.7-4.8,8.6-7.2
				c1.4-1.1,1.4-1.6,0.3-2.9c-3.4-4.1-7.5-7.3-12.2-9.8c-4.5-2.4-9.3-4-14.2-5.1c-5.9-1.4-11.9-2.1-18-2.3c-4.5-0.1-9,0-13.5,0.3
				c-2.5,0.2-4.9,0.4-7.3,0.7c-12,1.5-22.3,6.4-30.6,15.2c-3.6,3.8-6.4,8.1-8.4,13c-2.2,5.4-4.2,10.9-5.4,16.6
				c-0.6,2.9-1.1,5.8-1.5,8.7c-0.5,3.5-0.9,7-1.3,10.6c-0.2,2.3-0.4,4.5-0.6,6.8c-0.4,7.1-0.5,14.2-0.2,21.3
				c0.2,3.6,0.4,7.2,0.7,10.8c0.6,7.6,1.5,15.1,3.2,22.5c1.2,4.9,2.6,9.8,4.7,14.4c6,13.4,16,22.3,30.1,26.6
				c3.7,1.1,7.4,1.8,11.2,2.3c6.8,0.8,13.5,0.9,20.3,0.7c6.7-0.2,13.3-1.1,19.8-2.9c4.3-1.2,8.4-2.9,12.3-5.1
				c3.2-1.9,6.1-4.1,8.6-6.8c0.7-0.8,1.5-1.6,2.3-2.4c0.2-0.2,0.5-0.5,0.7-0.6c0.3-0.2,0.6-0.2,0.9,0c0.2,0.1,0.4,0.3,0.6,0.5
				c1.4,1.3,2.8,2.6,4.3,3.8c1.2,1.1,1.2,1.6,0.1,2.8c-4.4,4.9-9.6,8.9-15.5,11.9c-5.5,2.8-11.2,4.7-17.2,6
				c-6.2,1.3-12.4,1.9-18.7,2c-0.4,0-0.9,0.1-1.3,0.2c-1.5,0-2.9,0-4.4,0c-0.3-0.1-0.5-0.2-0.8-0.2c-2.9-0.1-5.7-0.2-8.6-0.4
				c-7.7-0.6-15.1-2-22.3-4.7c-12.2-4.6-21.5-12.7-27.8-24.2c-3.5-6.4-6-13.2-7.7-20.2c-1.2-5-2.1-10-2.8-15
				c-0.7-4.9-1.2-9.8-1.5-14.8c-0.2-3.5-0.3-7-0.4-10.5c-0.2-4.4,0-8.8,0.1-13.2c0.1-3.2,0.3-6.4,0.7-9.5c0.4-3.7,0.8-7.4,1.2-11.1
				c1.2-10.9,3.8-21.5,8.5-31.5c1.9-4,4.1-7.8,6.8-11.3c5.7-7.5,13.1-13,21.8-16.6c4.2-1.7,8.6-2.9,13.1-3.8
				c3.6-0.7,7.3-1.2,10.9-1.6c1.9-0.2,3.8-0.3,5.7-0.4c0.5,0,1-0.1,1.5-0.2C587.9,43.2,591,43.2,594,43.2z"/>
		</g>
		<g>
			<path fill="currentColor" d="M900,238.2l-0.6-0.1c-0.1,0-0.3-0.1-0.4-0.1c-0.8,0-1.6-0.1-2.3-0.1c-1.7-0.1-3.5-0.1-5.3-0.3c-10.6-0.8-20-3.2-28.7-7.4
				c-9.4-4.5-17.1-11.4-23-20.4c-3.4-5.3-6.2-11.2-8.5-18.1c-1.6-4.7-2.9-9.9-4.1-16.3c-0.7-4-1.2-7.9-1.5-11.1
				c-0.1-1.5-0.3-2.9-0.5-4.4c-0.1-1.1-0.3-2.3-0.4-3.4c-0.1-1.3-0.3-2.9-0.4-4.6c-0.4-6.9-0.5-13.8-0.2-20.6
				c0.2-5.3,0.7-10.8,1.4-17.5c0.1-1,0.2-2,0.3-3c0.3-2.5,0.5-5,0.9-7.5c1.7-11.6,4.7-21.6,9.3-30.6c3.5-7,8.1-13,13.5-17.9
				c6.1-5.6,13.5-9.7,22-12.5c3.7-1.2,7.7-2.1,12.6-2.9c4.8-0.8,9.6-1.3,14.3-1.5l0.1,0c0.2,0,0.4-0.1,0.6-0.1l0.5-0.1h9.1l0.4,0.1
				c0.2,0,0.4,0.1,0.6,0.1c0.2,0,0.3,0.1,0.5,0.1c8.5,0.4,16.8,1.9,24.7,4.4c7.7,2.4,14.7,6,20.6,10.8c3.8,3,7.1,6.5,9.8,10.2
				c0.9,1.3,1.8,2.5,2.6,3.8l1,1.4c0.3,0.4,0.6,1,1,1.6c1.3,2.8,0.8,5.9-1.4,8.1c-0.4,0.4-0.8,0.8-1.1,1l-14.8,12.2
				c-11.5,9.6-23.1,19.1-34.6,28.7c-5,4.2-10.1,8.5-15.1,12.7c-2.5,2.1-5,4.2-7.5,6.3c-0.6,0.5-1.2,1-1.8,1.4
				c-3,2.1-6.4,3.2-10.2,3.2c-0.3,0-0.6,0-1,0c-1,0-2-0.1-3-0.1c-0.8,0-1.7-0.1-2.5-0.1c-0.7,0-1.4-0.1-2.1-0.1l-5.5-0.3l-0.6-4.6
				c-0.1-0.9-0.3-3.9,2.7-6c3.5-2.9,18.7-15.6,18.7-15.6l55-45.7c-4.4-4.1-9.6-7.1-16-9.1c-3.2-1-6.8-1.8-11.3-2.5
				c-4-0.6-8.4-1-12.9-1c-0.5,0-1,0-1.5,0c-4.1,0.1-8.1,0.2-11.8,0.5c-5.8,0.4-10.8,1.5-15.4,3.2c-10.9,4.2-18.5,11.4-23.3,22
				c-2.8,6.1-4.7,12.4-5.6,18.7l-0.4,2.5c-0.5,3.2-1,6.4-1.4,9.6c-0.4,3.2-0.7,6.7-0.9,10.2c-0.2,4.1-0.4,8-0.4,11.7
				c0,5.9,0.2,12,0.7,17.9c0.4,4.6,1,9.2,1.7,13.8c0.1,0.9,0.3,1.7,0.4,2.6c0.4,2.6,0.8,5.1,1.3,7.6c1.1,5.6,3.1,11.1,5.8,16.2
				c3.1,5.8,7.4,10.5,13.1,14.4c4.6,3.1,9.6,5.3,15.5,6.5c4.3,0.9,8.8,1.3,12.2,1.6c2.4,0.2,5,0.3,8.2,0.3c1,0,2,0,3.1,0
				c3.7,0,7.7-0.4,12.2-1c3.8-0.5,7.3-1.3,10.5-2.3c5.9-1.9,10.9-4.6,15.1-8.3c0.7-0.6,1.4-1.4,2.2-2.1c0.3-0.3,0.7-0.7,1-1
				c0.3-0.4,0.7-0.7,1-1.1l4-4.3l4.2,3.1c0.2,0.2,0.6,0.4,0.9,0.7l0.9,0.9c1.3,1.2,2.7,2.5,4,3.7c3.3,3.1,3.4,7.2,0.3,10.5
				c-2.5,2.7-4.6,4.7-6.7,6.4c-6,4.9-13,8.6-20.9,11.1c-4.7,1.5-9.7,2.6-15.2,3.3c-3.8,0.5-7.4,0.8-10.9,0.9l-0.1,0
				c-0.2,0-0.4,0.1-0.6,0.1l-0.4,0.1H900z"/>
		</g>
		<g>
			<path fill="currentColor" d="M908.4,43.2c0.5,0.1,1.1,0.2,1.6,0.2c7.9,0.4,15.7,1.8,23.3,4.1c6.8,2.1,13.1,5.3,18.8,9.8c3.3,2.7,6.3,5.7,8.8,9.1
				c1.2,1.7,2.3,3.4,3.5,5c0.2,0.3,0.4,0.5,0.5,0.8c0.3,0.7,0.2,1.2-0.3,1.7c-0.3,0.3-0.5,0.5-0.8,0.7
				c-16.4,13.6-32.8,27.2-49.2,40.8c-7.6,6.3-15,12.7-22.6,19c-0.5,0.4-0.9,0.7-1.4,1.1c-2.3,1.6-4.8,2.3-7.6,2.1
				c-1.9-0.1-3.7-0.1-5.6-0.2c-1,0-1.9-0.1-2.8-0.2c-0.1-0.5,0.3-0.6,0.5-0.8c6.3-5.2,12.6-10.5,18.9-15.7c18-15,36-29.9,54-44.9
				c1.4-1.2,2.8-2.3,4.2-3.5c0.1-0.1,0.3-0.2,0.4-0.4c0.6-0.6,0.7-1.1,0.1-1.8c-0.8-1-1.7-2-2.7-2.9c-5.4-5.4-11.8-8.9-19-11.2
				c-4-1.2-8-2.1-12.1-2.7c-5.1-0.8-10.2-1.1-15.4-1c-4,0.1-8.1,0.2-12.1,0.5c-5.8,0.4-11.6,1.5-17,3.6c-12.2,4.7-21,13-26.4,24.9
				c-2.9,6.4-5,13.2-6.1,20.2c-0.6,4.1-1.3,8.2-1.8,12.3c-0.4,3.5-0.7,7.1-0.9,10.6c-0.2,4-0.4,8-0.4,12c0,6.1,0.2,12.3,0.7,18.4
				c0.4,4.8,1,9.5,1.8,14.2c0.6,3.5,1.1,6.9,1.8,10.4c1.2,6.2,3.4,12.2,6.4,17.8c3.6,6.7,8.6,12.1,14.9,16.4
				c5.3,3.6,11.2,6,17.5,7.4c4.3,0.9,8.6,1.4,13,1.7c3.9,0.3,7.8,0.3,11.7,0.3c4.3-0.1,8.6-0.5,12.9-1c3.9-0.5,7.7-1.3,11.4-2.5
				c6.3-2,12.1-5.1,17.1-9.5c1.2-1.1,2.3-2.3,3.5-3.5c0.6-0.6,1.1-1.2,1.7-1.8c0.2,0.2,0.4,0.3,0.6,0.4c1.6,1.5,3.3,3,4.9,4.5
				c1,0.9,1,1.5,0,2.5c-1.9,2.1-3.9,4.1-6.1,5.8c-5.7,4.6-12.1,7.9-19.1,10.1c-4.7,1.5-9.4,2.5-14.3,3.1c-3.5,0.5-7,0.8-10.5,0.9
				c-0.4,0-0.9,0.1-1.3,0.2c-2.4,0-4.7,0-7.1,0c-0.3-0.1-0.6-0.2-0.9-0.2c-2.6-0.1-5.2-0.2-7.8-0.4c-9.3-0.7-18.2-2.8-26.7-6.8
				c-8.6-4.1-15.5-10.3-20.6-18.4c-3.4-5.3-5.9-11-7.9-16.9c-1.7-5.1-2.9-10.2-3.8-15.5c-0.6-3.5-1.1-7.1-1.4-10.7
				c-0.3-2.6-0.6-5.2-0.9-7.9c-0.2-1.4-0.3-2.9-0.4-4.3c-0.4-6.7-0.5-13.4-0.2-20.1c0.3-5.7,0.8-11.4,1.4-17.1
				c0.4-3.4,0.7-6.9,1.2-10.3c1.5-10,4.1-19.8,8.7-28.9c3.1-6.2,7.1-11.6,12.2-16.3c5.8-5.2,12.5-8.9,19.9-11.3
				c3.9-1.2,7.8-2.1,11.8-2.7c4.6-0.8,9.2-1.2,13.8-1.4c0.4,0,0.8-0.1,1.2-0.2C903,43.2,905.7,43.2,908.4,43.2z"/>
		</g>
		<g>
			<path fill="currentColor" d="M1072.4,238.2l-0.6-0.1c-0.1,0-0.3-0.1-0.4-0.1c-0.7,0-1.4-0.1-2.1-0.1c-1.5-0.1-3-0.1-4.5-0.3
				c-10.5-0.9-19.7-3.2-28.1-7.1c-10.7-5-19.2-12.7-25.2-23c-2.5-4.3-4.7-9.3-6.7-15.1c-2-6-3.6-12.5-4.9-20
				c-0.8-4.7-1.2-9.3-1.4-12.8c-0.1-1-0.1-2-0.2-3c-0.2-2.3-0.4-4.6-0.5-6.9l0-0.7c-0.2-4.4-0.4-9-0.2-13.7c0.1-1.6,0.2-3.2,0.2-4.7
				c0.1-3,0.3-6.1,0.5-9.2c0.1-2.2,0.3-4.5,0.5-6.7c0.1-1.5,0.3-3,0.4-4.4c0.3-4,1.1-7.9,2-11.5l0.3-1.5c0.2-0.8,0.3-1.5,0.5-2.3
				c0.2-1.1,0.4-2.3,0.7-3.4c1.4-5.8,3.4-11.6,6.3-17.8c2.2-4.8,5.1-9.2,8.5-13.2c7.1-8.3,16.1-14.3,26.7-17.9
				c4-1.3,8.4-2.4,13.5-3.2c4.9-0.8,9.8-1.3,14.6-1.5l0.1,0c0.2,0,0.4-0.1,0.6-0.1l0.5-0.1h7.8l0.5,0.1c0.2,0,0.4,0.1,0.6,0.1l0.1,0
				c3.9,0.1,7.7,0.5,11.2,0.9c10.9,1.5,20.5,4.7,29.1,9.7c4.3,2.5,8.3,5.7,12,9.5c0.6,0.7,1.3,1.4,1.9,2c0.4,0.4,0.7,0.8,1,1.2
				c1.7,2.4,1.6,5.4-0.1,7.7c-0.4,0.5-0.8,0.9-1.2,1.4c-1.5,1.3-3,2.7-4.5,4c-0.3,0.3-0.7,0.6-1.3,1c-1.1,0.7-2.3,1-3.6,1
				c-1.9,0-3.7-0.8-5-2.1c-0.2-0.2-0.4-0.5-0.6-0.7c-3.9-4.6-8.7-8-14.9-10.5c-3.4-1.4-7.3-2.4-11.7-3.3c-5-0.9-10.5-1.4-16.8-1.4
				c-1.5,0-2.9,0-4.5,0.1c-2.3,0.1-4.8,0.2-7.2,0.3c-5.4,0.4-10.2,1.4-14.8,2.8c-4.6,1.5-8.9,3.9-13.1,7.3c-4.7,3.8-8.1,8-10.5,12.8
				c-0.9,1.8-1.7,3.5-2.2,5.1c-2,5.9-3.3,10.4-4.3,14.6c-0.7,3-1.2,6.1-1.4,9.1l-0.2,1.8c-0.4,4.5-0.8,9.2-1.1,13.8
				c-0.3,5.2-0.4,9.2-0.2,12.8c0.1,1.4,0.1,2.8,0.2,4.2c0.1,1.5,0.1,3.1,0.2,4.6c0.2,2.8,0.3,5.7,0.5,8.5l0.2,3
				c0.1,1.5,0.2,3,0.3,4.4c0.4,5.2,1.3,10.5,2.8,16.3c0.8,3,1.7,6.4,3.1,9.8c3,7.2,7.2,12.9,12.9,17.5c4.9,4,10.5,6.6,17,8.1
				c3.5,0.8,7,1.2,10.1,1.6c3.7,0.4,7.4,0.6,11.6,0.6h0.3c2.2,0,4.5-0.1,6.8-0.2l0.7,0c2.2-0.1,4.7-0.4,7.7-0.9
				c6.5-1,11.7-2.5,16.2-4.7c3.1-1.5,5.8-3.2,8.1-5.2c0.8-0.7,1.5-1.4,2.4-2.3l0.6-0.6c0.3-0.3,0.5-0.6,0.8-0.8
				c0.3-0.3,0.6-0.7,0.9-1c0.6-0.6,1.2-1.1,1.9-1.5c1-0.6,2.2-0.9,3.4-0.9c1.5,0,3,0.5,4.2,1.5c0.1,0.1,0.3,0.2,0.4,0.3l0.4,0.3
				c1.7,1.6,3.5,3.1,5.2,4.7c0.7,0.6,1.1,1.2,1.2,1.5l2.2,3.2l-2.3,3.2c-0.2,0.3-0.6,0.9-1.2,1.5l-1.4,1.3c-1.7,1.6-3.3,3.1-5,4.6
				c-4.4,3.9-9.4,7-15.4,9.5c-6.1,2.5-12.7,4.3-19.6,5.4c-4.6,0.7-9.2,1.1-13.6,1.2c-0.1,0-0.2,0-0.3,0.1c-0.2,0-0.4,0.1-0.7,0.1
				l-0.4,0H1072.4z"/>
		</g>
		<g>
			<path fill="currentColor" d="M1080.6,43.2c0.4,0.1,0.8,0.2,1.2,0.2c3.6,0.1,7.3,0.4,10.9,0.9c9.6,1.3,18.6,4.1,27,9c4,2.3,7.6,5.2,10.8,8.6
				c0.6,0.7,1.3,1.3,1.9,2c0.2,0.2,0.4,0.4,0.5,0.6c0.2,0.3,0.2,0.7,0,1c-0.1,0.2-0.3,0.4-0.5,0.5c-1.5,1.3-3,2.6-4.5,4
				c-0.2,0.1-0.3,0.3-0.5,0.4c-0.5,0.3-1.2,0.2-1.6-0.2c-0.1-0.1-0.2-0.3-0.4-0.4c-4.6-5.5-10.4-9.4-17.1-12.1
				c-4.1-1.6-8.4-2.7-12.7-3.6c-7.5-1.4-15-1.7-22.6-1.4c-2.5,0.1-5,0.2-7.5,0.4c-5.5,0.4-10.8,1.4-16.1,3.1
				c-5.5,1.8-10.4,4.7-14.9,8.4c-4.9,4.1-9,8.8-12,14.5c-1,1.9-1.8,3.9-2.5,5.9c-1.7,5-3.3,10-4.5,15.2c-0.7,3.2-1.3,6.5-1.5,9.8
				c-0.4,5.3-0.9,10.5-1.3,15.8c-0.3,4.5-0.5,9-0.2,13.5c0.2,3,0.2,5.9,0.4,8.9c0.2,3.9,0.5,7.7,0.7,11.6c0.1,1.5,0.2,3,0.3,4.5
				c0.4,5.9,1.5,11.6,3,17.3c0.9,3.6,2,7.1,3.4,10.5c3.2,7.8,8,14.5,14.6,19.8c5.7,4.6,12.2,7.6,19.3,9.2c3.6,0.8,7.2,1.3,10.8,1.7
				c4,0.4,8.1,0.6,12.1,0.6c2.7,0,5.5-0.1,8.2-0.3c2.8-0.1,5.5-0.5,8.3-0.9c6.1-1,12.1-2.5,17.8-5.2c3.3-1.6,6.5-3.5,9.3-5.9
				c1.1-1,2.2-2.1,3.3-3.1c0.6-0.6,1.2-1.3,1.8-1.9c0.2-0.2,0.5-0.4,0.7-0.6c0.3-0.2,0.7-0.2,1,0.1c0.1,0.1,0.1,0.1,0.2,0.2
				c1.9,1.7,3.7,3.4,5.5,5.1c0.1,0.1,0.2,0.3,0.3,0.5c-0.1,0.2-0.2,0.4-0.4,0.5c-2.1,2-4.3,4-6.4,5.9c-4.1,3.7-8.7,6.4-13.8,8.5
				c-5.9,2.4-12,4.1-18.2,5c-4.3,0.6-8.6,1-12.9,1.1c-0.5,0-1.1,0.1-1.6,0.2c-2.4,0-4.7,0-7.1,0c-0.3-0.1-0.6-0.2-0.9-0.2
				c-2.3-0.1-4.5-0.2-6.8-0.4c-9.1-0.7-17.9-2.7-26.2-6.6c-9.7-4.6-17.3-11.5-22.7-20.8c-2.6-4.5-4.6-9.2-6.2-14.1
				c-2.1-6.3-3.6-12.7-4.7-19.2c-0.7-4-1.1-8.1-1.4-12.2c-0.2-3.3-0.5-6.5-0.7-9.8c-0.2-4.6-0.4-9.3-0.2-13.9
				c0.2-4.6,0.4-9.3,0.7-13.9c0.2-3.7,0.6-7.3,0.9-11c0.3-4.1,1.3-8.2,2.2-12.2c0.4-1.9,0.7-3.8,1.2-5.6c1.4-5.8,3.4-11.3,5.9-16.7
				c2-4.3,4.6-8.3,7.7-11.9c6.6-7.7,14.7-13,24.2-16.2c4.1-1.4,8.3-2.3,12.6-3c4.7-0.8,9.4-1.3,14.1-1.4c0.4,0,0.8-0.1,1.2-0.2
				C1076,43.2,1078.3,43.2,1080.6,43.2z"/>
		</g>
		<g>
			<path fill="currentColor" d="M189.5,235.1c-0.7,0-1.4,0-2.1,0l-3.1,0c-0.4,0-0.7,0-1,0l-3.3,0l-1.7-2.4c-0.6-0.9-2-3.4-0.5-6.5
				c1.1-2.7,2.3-5.4,3.4-8.1l50.7-119.6l23.6-55.7c0.1-0.4,0.3-0.7,0.5-1.1l3.7-8l5.7,6c0.5,0.4,1.1,1.1,1.5,2.1
				c26.1,61.6,52.2,123.1,78.3,184.7c0.5,1.2,0.5,2.3,0.5,2.8v4l-3.9,1.2c-0.5,0.2-1.2,0.4-2.2,0.4c-38.6,0-77.2,0-115.9,0h-4.8
				l-0.8-4.8c-0.3-1.9-0.3-9.1,0.1-11.1l0.9-4.4l4.7-0.1c0.3,0,0.5,0,0.8,0l23.8,0.1l16.1,0c3.1,0,6.2,0,9.3,0
				c14.1,0,28.1-0.1,42.2-0.1c0.6,0,1.3,0,1.9,0c-1-2.4-2-4.8-3-7.2l-12.1-28.4c-8-18.7-15.9-37.4-23.9-56
				c-3.6-8.5-7.2-17-10.8-25.5c-2-4.6-3.9-9.3-5.9-13.9c-0.2-0.5-0.4-1-0.7-1.6c-0.6,1.5-1.3,3-1.9,4.5c-1,2.2-1.9,4.4-2.8,6.6
				c-2.2,5.3-4.5,10.6-6.7,15.8l-2.4,5.5l-3.7,8.7c-7.6,17.9-15.2,35.7-22.8,53.6c-5,11.8-10,23.5-15.1,35.3l-7.4,17.4
				c-1.7,4-4.4,5.8-8.6,5.8L189.5,235.1z"/>
		</g>
		<g>
			<path fill="currentColor" d="M223.5,229.2c-0.2-1.4-0.2-7.9,0-9c0.3,0,0.6,0,0.9,0c7.9,0,15.8,0.1,23.8,0.1c0.5,0,0.9,0,1.4,0c8,0,16,0,24,0
				c14.1,0,28.1-0.1,42.2-0.1c3.1,0,6.3-0.1,9.4-0.1c0.2,0,0.4,0,0.7-0.1c0.1-0.5-0.1-0.8-0.3-1.2c-1.9-4.6-3.9-9.1-5.8-13.7
				c-12-28.2-24-56.3-36-84.5c-5.6-13.1-11.1-26.3-16.7-39.5c-1.3-3.2-2.7-6.4-4.1-9.5c-0.3-0.7-0.5-1.3-0.8-2
				c-0.2-0.6-0.5-1.1-1.1-1.5c-0.6,0.2-1,0.7-1.2,1.3c-2.5,7.3-5.8,14.3-8.8,21.5c-2.9,7.1-6,14.2-9,21.2
				c-8.8,20.8-17.6,41.5-26.5,62.3c-7.5,17.6-15,35.1-22.5,52.7c-0.9,2.1-1.5,2.4-3.7,2.4c-1.8,0-3.5,0-5.3,0c-0.5,0-1,0-1.4,0
				c-0.3-0.4-0.1-0.7,0-1c1.1-2.7,2.3-5.4,3.5-8.2c16.9-39.9,33.8-79.7,50.7-119.6c7.9-18.6,15.7-37.1,23.6-55.7
				c0.2-0.4,0.4-0.8,0.6-1.3c0.1,0.1,0.3,0.2,0.3,0.3c26.1,61.6,52.2,123.1,78.3,184.7c0,0.1,0,0.3,0,0.4c-0.1,0-0.3,0.1-0.4,0.1
				C300.8,229.2,262.2,229.2,223.5,229.2z"/>
		</g>
		<g>
			<path fill="currentColor" d="M362.1,235l-0.1,0c-0.2,0-0.4,0-0.6,0c-1.2,0-2.3-0.2-3.4-0.7l-5.5-2.5l3.2-5.8c0.2-0.4,0.4-0.7,0.6-1l32.9-56.9
				c20.5-35.5,41-71,61.5-106.6l-86.7,0c-0.4,0-0.8,0-1.3,0l-4.8,0l-1.2-4.1c-0.5-1.6-0.4-3-0.4-3.9c0-0.2,0-0.4,0-0.5
				c0-0.8,0-1.5,0-2.3l0-0.9v-7.6l4.5-1l0.1,0c0.3-0.1,0.8-0.2,1.5-0.3c0.3,0,0.6,0,0.9,0l0.6,0h121.9l-4.2,8.2l-0.3,0.6
				c-0.2,0.5-0.4,0.9-0.6,1.2l-1.2,2c-1.6,2.8-3.2,5.6-4.8,8.4c-4.9,8.4-9.7,16.8-14.6,25.2c-6.7,11.6-13.5,23.2-20.2,34.8
				c-7.2,12.4-14.3,24.8-21.5,37.2c-8.9,15.3-17.7,30.7-26.6,46c-1.9,3.3-3.9,6.6-5.8,9.9c5.6,0,11.1,0,16.7,0l48,0
				c4.5,0,9,0,13.5,0h0.7c2.2,0,4.5,0,6.7,0l5,0c0.7,0,1.8,0,3,0.4l3.5,1.2l0.4,3.7l0,0.2c0,0.3,0.1,0.8,0.1,1.3c0,2.2,0,4.3,0,6.5
				c0,4.1-2.6,6.9-6.8,7.3c-0.5,0.1-1,0.1-1.5,0.1C475.3,235.1,381.7,235,362.1,235z"/>
		</g>
		<g>
			<path fill="currentColor" d="M476.6,46.5c-0.4,0.7-0.6,1.1-0.8,1.6c-2,3.5-4,7-6,10.4c-11.6,20-23.2,40-34.8,60c-16,27.7-32.1,55.5-48.1,83.2
				c-3.1,5.4-6.3,10.7-9.5,16.1c-0.3,0.6-0.8,1.1-0.8,1.9c0.3,0.1,0.5,0.3,0.7,0.3c0.4,0.1,0.9,0.1,1.4,0.1c8,0,16,0,24,0
				c12.9,0,25.9,0,38.8,0c7.8,0,15.6,0,23.4,0c3.7,0,7.5,0,11.2,0c0.6,0,1.2,0,1.8,0.2c0,0.3,0.1,0.6,0.1,1c0,2.1,0,4.3,0,6.4
				c0,1.2-0.4,1.6-1.6,1.7c-0.3,0-0.6,0-1,0c-12.6,0-25.1,0-37.7,0c-25.2,0-50.4,0-75.5-0.1c-0.5,0-1.1,0.1-1.7-0.2
				c0.3-0.5,0.5-0.9,0.7-1.3c7.5-13,15-26,22.5-39c25.3-43.8,50.6-87.5,75.9-131.3c0.3-0.5,0.7-0.9,0.6-1.6c-0.2,0-0.4-0.1-0.6-0.1
				c-0.5,0-1,0-1.5,0c-31.3,0-62.7,0-94,0c-0.6,0-1.2,0-1.8,0c-0.3-1-0.1-2-0.1-3c0-1,0-2,0-3c0-1,0-2,0-3.1
				c0.3-0.1,0.6-0.2,0.8-0.2c0.4,0,0.7,0,1.1,0c36.9,0,73.9,0,110.8,0C475.2,46.5,475.8,46.5,476.6,46.5z"/>
		</g>
		<g>
			<path fill="currentColor" d="M697.4,235.1c-0.9,0-2.3-0.1-3.8-0.8l-2.7-1.3l-0.4-3c-0.2-1.7-0.2-182.2,0-184l0.4-3.3l2.8-1.2c0.5-0.2,1.4-0.6,2.7-0.7
				c2.6,0,5.1,0,7.7,0h0.3c0.9,0,1.6,0.2,1.9,0.3l4.3,1l0.1,4.4l0,0.4c0,0.4,0,0.8,0,1.1c0,1.7,0,6.8,0,6.8v58.4l0,101.2
				c3.8,0,12.5,0,12.5,0l34.8,0c10.9,0,38,0,38,0c0.5,0,2.7,0,3.3,0h0.2c0.4,0,0.9,0,1.3,0l4.6,0.2l1.1,4c0.1,0.4,0.4,1.2,0.4,2.2
				c0,1.9,0,3.8,0,5.7l0,1.4c0,0.1,0,0.3,0,0.4c0,3-2,5.5-4.9,6.3c-0.7,0.2-1.4,0.3-2.1,0.3c-0.3,0-0.6,0-0.9,0l-0.7,0l-81.7,0
				c-3.2,0-6.4,0-9.6,0c-2.9,0-5.8,0-8.7,0C698.1,235.1,697.5,235.1,697.4,235.1z"/>
		</g>
		<g>
			<path fill="currentColor" d="M696,46.8c0.1,0,0.2-0.1,0.4-0.1c2.6,0,5.3,0,7.9,0c0.2,0,0.3,0.1,0.6,0.1c0,0.5,0,0.9,0,1.4c0,2.3,0,4.6,0,6.8
				c0,19.5,0,39,0,58.4c0,33.3,0,66.5,0,99.8c0,1.8,0,3.5,0,5.3c0,0.2,0,0.5,0,0.7c0.1,0.5,0.4,0.9,1,1c0.3,0,0.5,0.1,0.8,0.1
				c5.1,0,10.2,0,15.3,0c0.4,0,0.7,0,1.1,0c11.6,0,23.2,0,34.8,0c12.7,0,25.3,0,38,0c1.1,0,2.3,0,3.4,0c0.5,0,1,0,1.5,0.1
				c0.1,0.3,0.2,0.5,0.2,0.7c0,2.4,0,4.7,0,7.1c0,0.1,0,0.3,0,0.4c0,0.5-0.3,0.8-0.7,0.9c-0.3,0.1-0.5,0.1-0.8,0.1
				c-0.5,0-0.9,0-1.4,0c-27.2,0-54.5,0-81.7,0c-6.1,0-12.2,0-18.3,0c-0.7,0-1.5,0.1-2.1-0.2C695.8,228.1,695.8,48,696,46.8z"/>
		</g>
	</g>
</g>

</svg>
